<svg xmlns="http://www.w3.org/2000/svg" viewBox="0 0 3499.91 705.33"><defs><style>.cls-1{fill:#52525c;}.cls-2{fill:#117b29;}.cls-3{fill:#62b431;}</style></defs><g id="Layer_2" data-name="Layer 2"><g id="Layer_1-2" data-name="Layer 1"><path class="cls-1" d="M2330.72,325.75h66.19V472.4h174.38V325.8h69.15V694.67h-68.55V538.52H2398V695h-67.26Z"/><path class="cls-2" d="M1162.94,424.33c-34.6-28.47-71.4-42-114-41.21-64.86,1.15-113.73,45.38-118.1,110.66-3.3,49.31,6.63,94.7,49.49,125.64,38.37,27.7,81.41,27.32,125.1,15.68,3.73-1,8.5-7.08,8.65-11,.83-22,.4-44,.4-67.81h-64.51V503.77h131c.38,7.2.94,13,1,18.74.08,41.91-1.05,83.86.58,125.7.7,17.92-5,26.81-21.32,33.08-55.66,21.39-112.73,27.52-170.45,13.24C905.09,673.34,857.55,606.2,858.37,512c1-115.17,85.18-194.63,200.75-190.09,37.87,1.48,72.52,12.66,105.57,30.47,8.2,4.42,10.37,8.72,7.88,18.3C1168.24,387.36,1166.33,404.62,1162.94,424.33Z"/><path class="cls-1" d="M2961.27,669.18c0-7.08,0-14.12,0-21.42-26.42,4.49-32.31-.43-32.42-26.2-.15-36.52.39-73.07-.44-109.59-1-43.56-18.9-69.08-58.44-82.77-50.28-17.43-98.83-10.57-145.34,13.73-3.49,1.83-7.41,6.72-7.59,10.35-.82,15.85-.36,31.77-.36,50.46,31.09-17.14,60.46-28,93-26.85,29.65,1.08,46.43,16.75,49,46-11.1,1.65-22.32,3-33.39,5.07-34.68,6.36-69.44,12.79-98.8,34.29-24.69,18.11-35.83,42.77-31.81,73.24,4.24,32.6,23.72,53,54.74,61.5,13,3.52,27.14,4.35,40.69,4.17,30.33-.4,55.63-14.38,78.42-34.36,13.16,27.35,35.91,34.83,61.64,34.65C2961.34,701.2,2961.34,700.41,2961.27,669.18Zm-100.06-56.07a18.27,18.27,0,0,1-4.28,11c-18.73,20.09-41.33,29.29-69.08,23.79-13.91-2.77-25-8.84-27.68-23.87-3.09-16.92,1.76-32.7,18.26-38.67,25.84-9.42,52.94-15.42,83-23.86C2861.42,583.46,2861.71,598.3,2861.21,613.11Z"/><path class="cls-2" d="M1667.12,575.52c0-20.88,1.94-40.72-.43-60-4.42-36.38-21.2-66.39-55.85-82.09-45.94-20.85-91.83-19.81-135,7.83-47.3,30.3-70,92.3-57.76,151.67,6.76,32.75,20.16,61.75,48.27,81,57.58,39.46,117.89,34.61,178.56,7.58,3.84-1.72,8-7.51,8.23-11.64,1-15.31.39-30.7.39-48.09-7.69,4.06-13.33,7.19-19.08,10-30.3,14.74-61.64,22-95.43,14.77-32.49-7-57.61-40-52.33-71Zm-182-45c6.9-43.09,33.64-62.89,76.16-57.5,28.11,3.52,43.56,24.76,41,57.5Z"/><path class="cls-2" d="M1962.24,538.93c.75-96.14-72.5-127.74-142.8-117.24-52.62,7.83-87.84,40.61-102.5,91.07-15.42,53-10.53,104.2,28.32,147.72,48.7,54.49,147,48.49,196.27,19,2.92-1.76,6-6,6.12-9.24.64-15.67.28-31.37.28-44.56-26.52,8-50.93,18.29-76.34,22.43-42.44,6.9-90.1-12.15-93.95-71.49h184.6C1962.24,562.58,1962.17,550.75,1962.24,538.93ZM1779,530.63c.79-21.21,9.52-38,27-48.63,22.42-13.7,46.43-14.59,69.54-1.48,18.91,10.75,22,29.37,22.68,50.11Z"/><path class="cls-2" d="M2080.79,695.39h-66.53V427.23H2073l6.39,26.62c28-23.56,59.54-34.94,95.76-34,51,1.35,84.27,30.52,85.77,81.55,1.87,64,.45,128.1.45,193.41h-65.69c-.26-5.06-.79-10.77-.8-16.48-.08-46.72.15-93.43-.14-140.15-.21-34.24-10.91-50.94-35.38-56.85-25.58-6.17-65.57,10.31-76.63,32.31-2.22,4.42-1.88,10.38-1.9,15.64-.13,49.11-.07,98.22-.07,147.34Z"/><path class="cls-1" d="M3240.56,695.39h-57.34c-2.19-9.09-4.24-17.65-6.81-28.33-21.58,17.65-43.53,32.33-71.6,34-58.2,3.38-107.25-18.77-107.7-89q-.59-88.89-1.1-177.77a46.54,46.54,0,0,1,1-6.86h68c0,42.77,0,84.53,0,126.3,0,12.57.31,25.14.18,37.71-.57,52.07,38.7,59,71.68,50.16,24.37-6.54,35.91-24,35.92-50,0-54.38,0-108.76,0-164.16h67.76Z"/><path class="cls-1" d="M3477.78,500.27c-27.72-17.38-55-30.41-87-27.06-5.84.62-12.79.78-17.05,4-6.62,5-15.44,12.25-15.84,19-.46,7.73,5.25,19.65,11.82,23.19,13.84,7.46,30,10.62,45.19,15.59,13,4.25,26.25,7.81,38.83,13,27.71,11.49,45,32.11,46.12,62.55,1.1,30.59-11.14,55.78-37.62,72.89-39.12,25.27-120.73,23.83-159.38-3.14-2.86-2-5.8-6.18-5.92-9.46-.61-16-.28-31.93-.28-46.24,26,8.43,49.61,18.45,74.23,23.19,15,2.88,32.17-.27,47.08-4.89,7.63-2.36,16.32-13.41,17.32-21.43.88-7.12-6.43-18.4-13.32-22.62-11.36-7-25.28-9.75-38.16-14.19-17.39-6-36-9.64-52-18.21-50-26.8-52.67-95.1-6.08-127.84,40.87-28.72,110.76-21.65,150.71.19,3.62,2,5.78,9.9,5.6,14.95C3481.49,468.64,3479.44,483.47,3477.78,500.27Z"/><path class="cls-2" d="M1307.5,695.1h-66.67V427.4h59.94c1.67,12.29,3.31,24.36,5,36.93,49-44.22,55.59-47.31,91-42.61v65.67c-11,.83-21.67.73-32,2.59-37.94,6.81-56,27.54-56.75,66.36-.8,40.1-.38,80.22-.49,120.32C1307.49,682.49,1307.5,688.32,1307.5,695.1Z"/><path class="cls-2" d="M300.9,615.13c0,.31,0,.6.06.9C300.94,615.69,300.91,615.38,300.9,615.13Z"/><path class="cls-2" d="M702.7,678.71c0,17.9-8.7,26.59-26.8,26.59q-164,0-328,0c-1.88,0-3.75,0-5.63,0v-.09c-17.89-12.92-28.09-33.24-33.88-51.41,1.32.78,3.05.77,5,.77q100.51-.11,201-.07H651.59v-7.87q0-173.58.1-347.18c0-4.44-1.43-7-4.91-9.76Q502.69,177,358.88,63.89c-9.41-7.39-7.66-6.85-16.34-.06Q243.15,141.51,143.91,219.4c-29.63,23.21-59.3,46.35-88.76,69.79a12.56,12.56,0,0,0-4.31,8.6q-.33,175.56-.18,351.15c0,1.53.13,3.06.23,5.38h181c5.77,17,11.43,33.67,17.3,51h-3.79q-110.44,0-220.88-.06a34.72,34.72,0,0,1-8.45-1c-11.44-2.91-16-9-16-20.8q0-173.61.06-347.2c0-18.06.14-36.14-.13-54.22-.12-8.88,3.19-15.46,10.17-20.94Q124,171.9,237.65,82.41c31.68-24.9,63.26-49.93,95-74.8,13-10.2,23.22-10.15,36.38.17Q471.39,88,573.71,168.41,633.17,215.14,692.54,262c5.71,4.48,9,10.1,9.36,17.36.31,6.38.76,12.75.76,19.14Q702.74,488.58,702.7,678.71Z"/><path class="cls-3" d="M496.08,380c-1.46,46.23-11.81,89.8-41.72,126.73-31.24,38.56-72.22,61.66-119.66,74-11.23,2.94-22.72,4.85-34.4,7.28-.16,6.51-.12,13,.16,19.45.09,2.25.21,4.51.38,6.76,0,.2,0,.5.06.9s0,.56.06.9.07.78.11,1.24c0,.2,0,.4.05.61a224.76,224.76,0,0,0,5,32.27,5.14,5.14,0,0,0,2.29,3.65c5.79,18.17,16,38.49,33.88,51.41v.09c-13.1-.06-26.22-.34-39.32,0-6.09.13-9.86-2.28-13-7.08-12-18.14-18.66-38.31-21.82-59.56q-2.2-14.93-2.95-29.58C262,546.25,278.31,486.92,306,429.74c24.73-51.16,59.29-95.12,99.61-134.8a12.86,12.86,0,0,0,3.26-4.51q-75.6,45-121.78,119.84c-30.67,49.89-45,104.88-50.19,163.84-14.64-15.87-26.07-32.46-33.74-51.29-28.29-69.5-20-135,24.39-195.1,34.77-47.07,82.67-77.1,135.9-99.33,32-13.36,65.38-21.61,99.38-27.76,6.4-1.15,8.29,2.92,9.52,7.49,3.62,13.57,7.43,27.12,10.28,40.86C491.53,292.18,497.48,335.76,496.08,380Z"/></g></g></svg>